<?xml version="1.0" encoding="utf-8"?>
<!-- Generator: Adobe Illustrator 24.3.0, SVG Export Plug-In . SVG Version: 6.00 Build 0)  -->
<svg version="1.1" id="Layer_1" xmlns="http://www.w3.org/2000/svg" xmlns:xlink="http://www.w3.org/1999/xlink" x="0px" y="0px"
	 width="111px" height="132px" viewBox="0 0 111 132" style="enable-background:new 0 0 111 132;" xml:space="preserve">
<style type="text/css">
	.st0{fill:#1E3F74;}
	.st1{fill:#FFFFFF;}
	.st2{fill:#1C4075;}
	.st3{fill:#F0BB21;}
	.st4{fill:#1E4075;}
	.st5{display:none;}
	.st6{display:inline;fill:#ECB735;}
	.st7{display:inline;fill:#184779;}
	.st8{display:inline;fill:#FFFFFF;}
	.st9{display:inline;fill:#174879;}
</style>
<g>
	<polygon class="st0" points="100.93,14 100.95,129.58 10.12,129.58 10.12,13.9 55.24,48.27 100.93,14 	"/>
	<path class="st1" d="M74.89,80.25h-0.34v0.64h0.34c0.2,0,0.34-0.13,0.34-0.32C75.24,80.38,75.1,80.25,74.89,80.25L74.89,80.25z
		 M75.25,81.85l-0.42-0.74h-0.28v0.74H74.3v-1.82h0.62c0.32,0,0.57,0.24,0.57,0.55c0,0.27-0.17,0.43-0.39,0.5l0.44,0.78H75.25
		L75.25,81.85z M74.84,79.52c-0.77,0-1.4,0.64-1.4,1.42c0,0.78,0.63,1.42,1.4,1.42s1.4-0.64,1.4-1.42
		C76.24,80.15,75.61,79.52,74.84,79.52L74.84,79.52z M74.84,82.6c-0.92,0-1.66-0.74-1.66-1.66c0-0.92,0.74-1.66,1.66-1.66
		c0.92,0,1.66,0.74,1.66,1.66C76.51,81.86,75.76,82.6,74.84,82.6L74.84,82.6z"/>
	<polygon class="st2" points="44.55,10.91 48.32,13.54 50,9.26 53.18,12.57 55.66,8.7 58.13,12.57 61.32,9.26 62.99,13.54 
		66.76,10.91 67.57,15.44 70.37,14.21 70.37,2.43 40.91,2.43 40.91,14.19 43.75,15.43 44.55,10.91 	"/>
	<polygon class="st2" points="66.75,64.52 62.98,61.89 61.3,66.17 58.12,62.86 55.64,66.73 53.17,62.86 49.98,66.17 48.31,61.89 
		44.54,64.51 43.73,59.99 40.91,61.23 40.91,79.41 55.65,68.09 70.39,79.41 70.39,61.24 67.55,60 66.75,64.52 	"/>
	<path class="st3" d="M70.39,79.41L55.65,68.09L40.91,79.41V61.23l2.83-1.24l0.81,4.52l3.77-2.63l1.67,4.28l3.18-3.31l2.48,3.87
		l2.48-3.87l3.18,3.31l1.67-4.28l3.77,2.63L67.55,60l2.84,1.24V79.41L70.39,79.41z M40.91,2.43h29.46v11.77l-2.81,1.23l-0.8-4.52
		l-3.77,2.63l-1.67-4.28l-3.18,3.31L55.66,8.7l-2.48,3.87L50,9.26l-1.67,4.28l-3.77-2.63l-0.81,4.52l-2.84-1.24V2.43L40.91,2.43z
		 M80.79,40.2l3.87-2.48l-3.87-2.48l3.31-3.18l-4.28-1.67l2.63-3.77l-4.52-0.81l1.84-4.21l-4.59,0.09l0.99-4.49l-4.39,0.96V1.02
		H39.5l0,17.13l-4.36-0.96l0.98,4.49l-4.59-0.09l1.84,4.21l-4.52,0.81l2.63,3.77l-4.28,1.67l3.31,3.19l-3.87,2.47l3.87,2.48
		l-3.31,3.18l4.28,1.68l-2.63,3.77l4.52,0.81l-1.84,4.21l4.59-0.09l-0.99,4.49l4.37-0.96l0,25.01l16.16-12.4l16.15,12.4v-25
		l4.36,0.96l-0.98-4.49l4.59,0.09l-1.84-4.21l4.52-0.81l-2.63-3.77l4.28-1.67L80.79,40.2L80.79,40.2z"/>
	<path class="st4" d="M55.64,13.62c-13.33,0-24.13,10.81-24.13,24.13c0,13.31,10.8,24.1,24.13,24.1c13.32,0,24.14-10.79,24.14-24.1
		C79.78,24.43,68.96,13.62,55.64,13.62L55.64,13.62z"/>
	<polygon class="st1" points="70.19,28.35 67.86,29.98 67.09,28.88 69.42,27.26 71.57,23.22 72.42,24.42 70.87,27.07 73.89,26.51 
		74.74,27.71 70.19,28.35 	"/>
	<polygon class="st1" points="62.76,24.95 66.96,19.45 70.59,22.21 69.86,23.16 67.31,21.22 66.32,22.51 68.5,24.16 67.77,25.12 
		65.59,23.47 64.57,24.81 67.13,26.74 66.4,27.7 62.76,24.95 	"/>
	<polygon class="st1" points="57.9,23.3 59.76,16.64 61.06,17 59.53,22.5 62.56,23.34 62.24,24.5 57.9,23.3 	"/>
	<polygon class="st1" points="52.67,23.46 52.05,16.58 53.39,16.46 53.91,22.14 57.04,21.86 57.15,23.05 52.67,23.46 	"/>
	<polygon class="st1" points="47.61,25.49 44.72,19.21 48.87,17.31 49.37,18.41 46.45,19.74 47.13,21.22 49.62,20.08 50.12,21.17 
		47.63,22.31 48.33,23.83 51.26,22.5 51.76,23.59 47.61,25.49 	"/>
	<polygon class="st1" points="46.03,26.97 42.48,26.22 42.69,27.6 44.25,28.97 43.36,29.98 38.16,25.41 39.06,24.4 41.32,26.39 
		40.68,22.58 41.77,21.35 42.31,24.88 47.07,25.8 46.03,26.97 	"/>
	<polygon class="st1" points="75.92,41.56 74.28,38.09 73.45,39.27 73.45,41.56 72.2,41.56 72.2,33.93 73.45,33.93 73.45,37.25 
		75.71,33.93 77.22,33.93 75.1,36.96 77.38,41.56 75.92,41.56 	"/>
	<path class="st1" d="M69.82,35.6c-0.18-0.25-0.46-0.41-0.8-0.41c-0.34,0-0.63,0.16-0.81,0.41c-0.24,0.32-0.31,0.68-0.31,2.14
		c0,1.47,0.06,1.82,0.31,2.14c0.18,0.25,0.47,0.41,0.81,0.41c0.34,0,0.62-0.16,0.8-0.41c0.24-0.32,0.31-0.67,0.31-2.14
		C70.14,36.28,70.06,35.92,69.82,35.6L69.82,35.6z M70.75,40.79c-0.45,0.54-1,0.84-1.73,0.84c-0.73,0-1.28-0.3-1.73-0.84
		c-0.65-0.77-0.63-1.73-0.63-3.04c0-1.32-0.02-2.27,0.63-3.04c0.45-0.54,1.01-0.84,1.73-0.84c0.73,0,1.28,0.3,1.73,0.84
		c0.65,0.77,0.64,1.73,0.64,3.04C71.38,39.06,71.39,40.02,70.75,40.79L70.75,40.79z"/>
	<path class="st1" d="M64.49,35.6c-0.18-0.25-0.46-0.41-0.8-0.41c-0.34,0-0.63,0.16-0.81,0.41c-0.24,0.32-0.31,0.68-0.31,2.14
		c0,1.47,0.06,1.82,0.31,2.14c0.18,0.25,0.47,0.41,0.81,0.41c0.34,0,0.62-0.16,0.8-0.41c0.24-0.32,0.31-0.67,0.31-2.14
		C64.81,36.28,64.74,35.92,64.49,35.6L64.49,35.6z M65.42,40.79c-0.45,0.54-1,0.84-1.72,0.84c-0.73,0-1.28-0.3-1.73-0.84
		c-0.65-0.77-0.63-1.73-0.63-3.04c0-1.32-0.02-2.27,0.63-3.04c0.45-0.54,1.01-0.84,1.73-0.84c0.73,0,1.28,0.3,1.72,0.84
		c0.65,0.77,0.64,1.73,0.64,3.04C66.06,39.06,66.07,40.02,65.42,40.79L65.42,40.79z"/>
	<path class="st1" d="M58.65,38.36h-1.3v1.88h1.3c0.57,0,0.84-0.43,0.84-0.94C59.48,38.77,59.21,38.36,58.65,38.36L58.65,38.36z
		 M58.56,35.26h-1.22v1.76h1.22c0.53,0,0.83-0.35,0.83-0.88C59.39,35.61,59.09,35.26,58.56,35.26L58.56,35.26z M58.77,41.56h-2.68
		v-7.63h2.57c1.25,0,1.98,0.84,1.98,2.14c0,0.85-0.47,1.39-0.79,1.58c0.39,0.21,0.88,0.7,0.88,1.72
		C60.73,40.79,59.91,41.56,58.77,41.56L58.77,41.56z"/>
	<polygon class="st1" points="49.49,41.56 49.49,33.93 53.7,33.93 53.7,35.26 50.74,35.26 50.74,37.05 53.26,37.05 53.26,38.38 
		50.74,38.38 50.74,40.23 53.7,40.23 53.7,41.56 49.49,41.56 	"/>
	<path class="st1" d="M46.2,41.62c-1.31,0-2.35-1.06-2.35-2.68v-5.02h1.25v4.96c0,0.88,0.43,1.4,1.11,1.4c0.67,0,1.11-0.53,1.11-1.4
		v-4.96h1.24v5.02C48.56,40.56,47.51,41.62,46.2,41.62L46.2,41.62z"/>
	<polygon class="st1" points="39.35,41.56 39.35,33.93 40.6,33.93 40.6,40.23 43.5,40.23 43.5,41.56 39.35,41.56 	"/>
	<path class="st1" d="M36.45,38.36h-1.3v1.88h1.3c0.57,0,0.84-0.43,0.84-0.94C37.28,38.77,37.01,38.36,36.45,38.36L36.45,38.36z
		 M36.37,35.26h-1.22v1.76h1.22c0.53,0,0.83-0.35,0.83-0.88C37.19,35.61,36.9,35.26,36.37,35.26L36.37,35.26z M36.57,41.56H33.9
		v-7.63h2.57c1.25,0,1.98,0.84,1.98,2.14c0,0.85-0.47,1.39-0.79,1.58c0.39,0.21,0.88,0.7,0.88,1.72
		C38.53,40.79,37.71,41.56,36.57,41.56L36.57,41.56z"/>
	<path class="st1" d="M41.47,46.77c0.04-0.17,0.02-0.36-0.1-0.54c-0.12-0.18-0.29-0.27-0.46-0.29c-0.22-0.03-0.4,0.05-1.04,0.5
		c-0.64,0.45-0.77,0.59-0.82,0.81c-0.05,0.17-0.01,0.37,0.1,0.54c0.12,0.18,0.29,0.27,0.46,0.29c0.22,0.03,0.4-0.05,1.04-0.49
		C41.29,47.14,41.42,46.99,41.47,46.77L41.47,46.77z M39.54,48.83c-0.39-0.07-0.71-0.26-0.96-0.63c-0.25-0.37-0.32-0.75-0.24-1.15
		c0.11-0.57,0.53-0.85,1.1-1.25c0.57-0.4,0.98-0.7,1.54-0.61c0.39,0.07,0.71,0.26,0.97,0.63c0.25,0.37,0.31,0.75,0.24,1.14
		c-0.11,0.57-0.53,0.85-1.1,1.26C40.51,48.63,40.1,48.93,39.54,48.83L39.54,48.83z"/>
	<polygon class="st1" points="42.98,48.55 42.27,49.25 43.33,50.39 42.82,50.88 41.76,49.74 40.58,50.89 40.05,50.33 42.96,47.49 
		44.74,49.39 44.23,49.89 42.98,48.55 	"/>
	<polygon class="st1" points="45.38,50.82 44.79,51.64 46.04,52.57 45.62,53.15 44.38,52.22 43.41,53.56 42.79,53.1 45.17,49.79 
		47.25,51.34 46.84,51.91 45.38,50.82 	"/>
	<polygon class="st1" points="45.89,55.19 47.74,51.54 48.42,51.9 46.57,55.55 45.89,55.19 	"/>
	<path class="st1" d="M48.75,56.5c-0.4-0.15-0.68-0.43-0.84-0.79c-0.23-0.53-0.05-1.01,0.19-1.67c0.24-0.67,0.4-1.15,0.91-1.4
		c0.35-0.17,0.74-0.2,1.14-0.05c0.69,0.26,1.08,0.87,0.92,1.72l-0.73-0.27c0.04-0.34-0.06-0.64-0.42-0.78
		c-0.2-0.07-0.38-0.06-0.53,0.03c-0.2,0.11-0.3,0.28-0.57,1.02c-0.27,0.74-0.29,0.94-0.21,1.16c0.06,0.16,0.19,0.3,0.39,0.37
		c0.36,0.13,0.63-0.03,0.82-0.32l0.73,0.27C50.12,56.54,49.43,56.75,48.75,56.5L48.75,56.5z"/>
	<polygon class="st1" points="51.01,57.19 51.84,53.17 52.59,53.33 51.76,57.35 51.01,57.19 	"/>
	<path class="st1" d="M54.19,54.77l-0.61,1.45l0.97,0.08L54.19,54.77L54.19,54.77z M54.87,57.73l-0.17-0.74l-1.39-0.11l-0.29,0.71
		l-0.79-0.07l1.74-3.97l0.6,0.05l1.1,4.21L54.87,57.73L54.87,57.73z"/>
	<polygon class="st1" points="56.17,57.73 55.94,53.63 56.7,53.58 56.9,56.97 58.67,56.86 58.71,57.58 56.17,57.73 	"/>
	<path class="st1" d="M62.64,55.94c-0.18,0.43-0.49,0.68-0.88,0.82c-0.4,0.15-0.79,0.12-1.14-0.06c-0.51-0.25-0.67-0.74-0.91-1.41
		c-0.24-0.67-0.42-1.15-0.18-1.68c0.16-0.37,0.43-0.64,0.84-0.79c0.85-0.32,1.49,0.11,1.83,0.73l-0.72,0.27
		c-0.21-0.33-0.5-0.45-0.86-0.32c-0.2,0.07-0.33,0.21-0.39,0.38c-0.08,0.21-0.06,0.41,0.21,1.15c0.26,0.74,0.36,0.92,0.56,1.03
		c0.15,0.09,0.34,0.1,0.53,0.03c0.22-0.08,0.36-0.23,0.43-0.41c0.07-0.19,0.05-0.38-0.02-0.58l-0.05-0.15l-0.68,0.25l-0.22-0.63
		l1.39-0.51l0.2,0.56C62.77,55.19,62.79,55.56,62.64,55.94L62.64,55.94z"/>
	<path class="st1" d="M65.35,55.23c-0.7,0.4-1.53,0.22-1.95-0.54l-1.29-2.36l0.67-0.38l1.28,2.33c0.23,0.41,0.59,0.53,0.95,0.32
		c0.36-0.21,0.46-0.59,0.24-1l-1.28-2.33l0.66-0.38l1.29,2.36C66.33,54.01,66.05,54.83,65.35,55.23L65.35,55.23z"/>
	<polygon class="st1" points="67.63,53.76 65.08,50.57 65.68,50.08 68.22,53.26 67.63,53.76 	"/>
	<path class="st1" d="M68.2,49.06c-0.21-0.02-0.39,0.04-0.58,0.23l-0.41,0.41l1.85,1.9l0.41-0.41c0.19-0.19,0.25-0.38,0.23-0.59
		c-0.03-0.23-0.21-0.46-0.64-0.9C68.63,49.26,68.43,49.09,68.2,49.06L68.2,49.06z M70.48,50.64c0,0.38-0.17,0.73-0.46,1.02
		l-1.01,1.01l-2.83-2.92l1-1.01c0.29-0.29,0.63-0.47,1.01-0.46c0.63,0.01,0.99,0.45,1.42,0.89C70.02,49.6,70.47,49.99,70.48,50.64
		L70.48,50.64z"/>
	<polygon class="st1" points="71.58,49.78 68.22,47.51 69.65,45.32 70.24,45.71 69.23,47.26 70.02,47.79 70.87,46.48 71.46,46.87 
		70.6,48.19 71.42,48.74 72.42,47.2 73.01,47.59 71.58,49.78 	"/>
	<path class="st3" d="M55.58,26.11c4.76,0,8.84,2.87,10.62,6.98h0.71c-1.82-4.48-6.2-7.64-11.33-7.64s-9.51,3.16-11.33,7.64h0.71
		C46.75,28.98,50.82,26.11,55.58,26.11L55.58,26.11z"/>
	<path class="st3" d="M55.58,49.28c-4.72,0-8.78-2.83-10.58-6.89h-0.72c1.84,4.43,6.2,7.55,11.3,7.55s9.45-3.12,11.3-7.55h-0.72
		C64.36,46.45,60.31,49.28,55.58,49.28L55.58,49.28z"/>
	<path class="st1" d="M24.77,93.31h-1.41v1.49h1.41c0.57,0,0.76-0.39,0.76-0.75C25.53,93.69,25.34,93.31,24.77,93.31L24.77,93.31z
		 M24.66,90.05h-1.3v1.39h1.3c0.57,0,0.75-0.36,0.75-0.69C25.41,90.41,25.23,90.05,24.66,90.05L24.66,90.05z M24.97,96.68h-3.7v-8.5
		h3.52c1.77,0,2.71,0.99,2.71,2.46c0,0.97-0.67,1.51-0.93,1.68c0.35,0.21,1.05,0.66,1.05,1.85C27.62,95.8,26.49,96.68,24.97,96.68
		L24.97,96.68z"/>
	<path class="st1" d="M32.4,92.29c-0.19-0.19-0.37-0.34-0.7-0.34c-0.26,0-0.79,0.16-0.79,0.88v3.85h-1.96v-6.43h1.91v0.53
		c0.29-0.29,0.85-0.6,1.52-0.6c0.63,0,1.06,0.16,1.5,0.6L32.4,92.29L32.4,92.29z"/>
	<path class="st1" d="M37.57,94.1h-0.93c-0.45,0-0.68,0.2-0.68,0.52c0,0.3,0.23,0.53,0.7,0.53c0.32,0,0.5-0.05,0.7-0.23
		c0.16-0.14,0.2-0.32,0.2-0.66V94.1L37.57,94.1z M37.61,96.68v-0.53c-0.39,0.4-0.75,0.59-1.43,0.59c-0.64,0-1.18-0.21-1.54-0.57
		c-0.37-0.37-0.56-0.91-0.56-1.5c0-0.97,0.66-1.86,2.22-1.86h1.27v-0.17c0-0.59-0.29-0.8-0.97-0.8c-0.44,0-0.7,0.14-1.01,0.45
		l-1.22-1.22c0.66-0.66,1.24-0.88,2.33-0.88c1.84,0,2.83,0.76,2.83,2.33v4.17H37.61L37.61,96.68z"/>
	<path class="st1" d="M44.43,96.68v-3.85c0-0.74-0.53-0.88-0.79-0.88c-0.26,0-0.79,0.14-0.79,0.88v3.85h-1.96v-6.43h1.91v0.53
		c0.39-0.39,0.98-0.6,1.49-0.6c0.61,0,1.1,0.2,1.44,0.55c0.55,0.55,0.64,1.16,0.64,1.84v4.11H44.43L44.43,96.68z"/>
	<path class="st1" d="M50.35,91.95c-0.73,0-0.81,0.59-0.81,1.52c0,0.93,0.08,1.52,0.81,1.52c0.73,0,0.81-0.58,0.81-1.52
		C51.16,92.54,51.08,91.95,50.35,91.95L50.35,91.95z M51.22,96.68v-0.53c-0.39,0.4-0.81,0.6-1.48,0.6c-0.62,0-1.18-0.2-1.55-0.58
		c-0.6-0.62-0.61-1.59-0.61-2.7c0-1.11,0.01-2.08,0.61-2.7c0.37-0.38,0.92-0.58,1.54-0.58c0.63,0,1.07,0.18,1.43,0.54v-2.54h1.96
		v8.5H51.22L51.22,96.68z"/>
	<polygon class="st1" points="57.37,96.68 57.37,88.18 59.46,88.18 59.46,96.68 57.37,96.68 	"/>
	<path class="st1" d="M68.13,96.68v-3.85c0-0.74-0.53-0.88-0.79-0.88c-0.26,0-0.79,0.14-0.79,0.88v3.85h-1.96v-3.85
		c0-0.74-0.53-0.88-0.79-0.88c-0.26,0-0.79,0.14-0.79,0.88v3.85h-1.96v-6.43h1.91v0.53c0.39-0.39,0.98-0.6,1.49-0.6
		c0.63,0,1.15,0.2,1.56,0.68c0.56-0.49,1.07-0.68,1.82-0.68c0.61,0,1.19,0.2,1.54,0.55c0.55,0.55,0.7,1.16,0.7,1.84v4.11H68.13
		L68.13,96.68z"/>
	<path class="st1" d="M74.57,94.1h-0.93c-0.45,0-0.68,0.2-0.68,0.52c0,0.3,0.23,0.53,0.7,0.53c0.32,0,0.5-0.05,0.7-0.23
		c0.16-0.14,0.2-0.32,0.2-0.66V94.1L74.57,94.1z M74.62,96.68v-0.53c-0.39,0.4-0.75,0.59-1.43,0.59c-0.65,0-1.18-0.21-1.54-0.57
		c-0.37-0.37-0.56-0.91-0.56-1.5c0-0.97,0.66-1.86,2.22-1.86h1.27v-0.17c0-0.59-0.29-0.8-0.97-0.8c-0.44,0-0.7,0.14-1.01,0.45
		l-1.22-1.22c0.66-0.66,1.24-0.88,2.33-0.88c1.84,0,2.83,0.76,2.83,2.33v4.17H74.62L74.62,96.68z"/>
	<path class="st1" d="M80.4,91.95c-0.72,0-0.76,0.62-0.76,1.28c0,0.66,0.05,1.28,0.76,1.28c0.72,0,0.76-0.62,0.76-1.28
		C81.16,92.57,81.11,91.95,80.4,91.95L80.4,91.95z M80.22,98.83c-1,0-1.75-0.18-2.41-0.84l1.22-1.22c0.3,0.3,0.66,0.41,1.1,0.41
		c0.82,0,1.04-0.56,1.04-0.98v-0.47c-0.36,0.36-0.79,0.54-1.39,0.54c-0.62,0-1.13-0.2-1.5-0.57c-0.59-0.58-0.6-1.3-0.6-2.47
		c0-1.17,0.01-1.89,0.6-2.47c0.37-0.37,0.89-0.57,1.52-0.57c0.66,0,1.04,0.2,1.43,0.6v-0.53h1.9v5.96
		C83.12,97.73,81.97,98.83,80.22,98.83L80.22,98.83z"/>
	<path class="st1" d="M88.04,92.3c-0.12-0.26-0.38-0.5-0.85-0.5c-0.47,0-0.73,0.24-0.85,0.5c-0.08,0.18-0.11,0.35-0.11,0.5h1.91
		C88.15,92.64,88.12,92.48,88.04,92.3L88.04,92.3z M86.24,94.1c0,0.52,0.41,1,1.14,1c0.68,0,0.98-0.19,1.32-0.54l1.17,1.17
		c-0.66,0.66-1.3,1.01-2.5,1.01c-1.42,0-3.06-0.51-3.06-3.28c0-2.1,1.19-3.28,2.88-3.28c1.86,0,2.89,1.34,2.89,3.1v0.81H86.24
		L86.24,94.1z"/>
	<path class="st1" d="M41.68,103.34l-0.76,2.27h1.48L41.68,103.34L41.68,103.34z M43.34,108.62l-0.39-1.26h-2.62l-0.42,1.26h-2.19
		l3.09-8.5h1.61l3.09,8.5H43.34L43.34,108.62z"/>
	<polygon class="st1" points="52.84,108.62 51.28,108.62 50.12,105.1 48.96,108.62 47.4,108.62 45.46,102.19 47.53,102.19 
		48.33,105.53 49.44,102.19 50.8,102.19 51.91,105.53 52.71,102.19 54.77,102.19 52.84,108.62 	"/>
	<path class="st1" d="M58.52,106.04h-0.93c-0.45,0-0.68,0.2-0.68,0.52c0,0.3,0.23,0.53,0.7,0.53c0.32,0,0.5-0.05,0.7-0.23
		c0.16-0.14,0.2-0.32,0.2-0.66V106.04L58.52,106.04z M58.57,108.62v-0.53c-0.39,0.39-0.75,0.59-1.43,0.59
		c-0.65,0-1.18-0.21-1.54-0.57c-0.37-0.37-0.56-0.91-0.56-1.51c0-0.97,0.66-1.86,2.22-1.86h1.27v-0.17c0-0.59-0.29-0.8-0.97-0.8
		c-0.44,0-0.7,0.14-1.01,0.45l-1.22-1.22c0.66-0.66,1.24-0.88,2.33-0.88c1.84,0,2.83,0.76,2.83,2.33v4.17H58.57L58.57,108.62z"/>
	<path class="st1" d="M65.3,104.22c-0.19-0.19-0.37-0.34-0.7-0.34c-0.26,0-0.79,0.16-0.79,0.88v3.85h-1.96v-6.42h1.91v0.53
		c0.29-0.29,0.85-0.6,1.52-0.6c0.63,0,1.06,0.16,1.5,0.6L65.3,104.22L65.3,104.22z"/>
	<path class="st1" d="M69.71,103.89c-0.73,0-0.81,0.59-0.81,1.52s0.08,1.52,0.81,1.52c0.73,0,0.81-0.59,0.81-1.52
		S70.44,103.89,69.71,103.89L69.71,103.89z M70.58,108.62v-0.53c-0.39,0.39-0.81,0.6-1.48,0.6c-0.62,0-1.18-0.2-1.55-0.58
		c-0.6-0.62-0.61-1.59-0.61-2.7c0-1.11,0.01-2.08,0.61-2.7c0.37-0.38,0.92-0.58,1.54-0.58c0.63,0,1.07,0.18,1.43,0.54v-2.54h1.96
		v8.5H70.58L70.58,108.62z"/>
	<polygon class="st3" points="42.95,118.86 17.44,118.86 17.44,120.19 42.95,120.19 42.95,118.86 	"/>
	<polygon class="st3" points="68.45,118.86 68.45,120.19 93.69,120.19 93.69,118.86 68.45,118.86 	"/>
	<polygon class="st3" points="100.88,129.38 10.05,129.38 10.05,130.98 100.88,130.98 100.88,129.38 	"/>
	<path class="st1" d="M48.99,121.48c0-0.22,0.02-0.42,0.07-0.61c0.04-0.19,0.11-0.37,0.2-0.54c0.09-0.17,0.2-0.34,0.34-0.5
		c0.14-0.16,0.29-0.33,0.48-0.5l0.4-0.38c0.11-0.1,0.2-0.19,0.27-0.27c0.07-0.08,0.12-0.17,0.16-0.25c0.04-0.08,0.06-0.17,0.07-0.27
		c0.01-0.1,0.02-0.21,0.02-0.33c0-0.41-0.16-0.61-0.49-0.61c-0.12,0-0.22,0.03-0.29,0.08c-0.07,0.05-0.13,0.12-0.17,0.21
		c-0.04,0.09-0.06,0.19-0.08,0.31c-0.01,0.12-0.02,0.24-0.02,0.37h-0.96v-0.19c0-0.46,0.12-0.81,0.37-1.06
		c0.25-0.24,0.63-0.37,1.16-0.37c0.5,0,0.87,0.12,1.11,0.35c0.24,0.23,0.36,0.56,0.36,0.99c0,0.16-0.01,0.3-0.04,0.44
		c-0.03,0.14-0.07,0.27-0.13,0.39c-0.06,0.13-0.14,0.25-0.24,0.36c-0.1,0.12-0.22,0.24-0.35,0.36l-0.56,0.51
		c-0.15,0.13-0.26,0.26-0.35,0.39c-0.08,0.13-0.14,0.24-0.16,0.33h1.85v0.78H48.99L48.99,121.48z"/>
	<path class="st1" d="M53.35,120.16c0.02,0.2,0.05,0.35,0.09,0.47c0.04,0.11,0.1,0.19,0.17,0.23c0.07,0.04,0.16,0.06,0.26,0.06
		c0.11,0,0.2-0.03,0.27-0.08c0.07-0.05,0.12-0.14,0.16-0.27c0.04-0.13,0.07-0.3,0.08-0.51c0.02-0.21,0.02-0.48,0.02-0.79v-0.53
		c0-0.31-0.01-0.56-0.02-0.76c-0.02-0.2-0.05-0.35-0.09-0.47c-0.04-0.11-0.1-0.19-0.17-0.23c-0.07-0.04-0.16-0.06-0.26-0.06
		c-0.11,0-0.2,0.03-0.27,0.08c-0.07,0.05-0.12,0.14-0.16,0.27c-0.04,0.13-0.07,0.3-0.08,0.51c-0.02,0.21-0.02,0.48-0.02,0.79v0.53
		C53.32,119.71,53.33,119.97,53.35,120.16L53.35,120.16z M52.36,118.2c0.02-0.31,0.09-0.59,0.19-0.84c0.1-0.24,0.26-0.44,0.46-0.58
		c0.21-0.15,0.49-0.22,0.86-0.22c0.3,0,0.55,0.04,0.75,0.13c0.2,0.09,0.35,0.22,0.47,0.41c0.12,0.19,0.2,0.44,0.25,0.74
		c0.05,0.3,0.07,0.67,0.07,1.11c0,0.34-0.01,0.67-0.03,0.99c-0.02,0.31-0.09,0.59-0.19,0.84c-0.1,0.24-0.26,0.43-0.46,0.57
		c-0.21,0.14-0.49,0.21-0.86,0.21c-0.3,0-0.54-0.04-0.74-0.12c-0.2-0.08-0.36-0.21-0.48-0.4c-0.12-0.19-0.2-0.44-0.25-0.74
		c-0.05-0.3-0.07-0.67-0.07-1.11C52.32,118.84,52.33,118.52,52.36,118.2L52.36,118.2z"/>
	<path class="st1" d="M55.65,121.48c0-0.22,0.02-0.42,0.07-0.61c0.04-0.19,0.11-0.37,0.2-0.54c0.09-0.17,0.2-0.34,0.34-0.5
		c0.14-0.16,0.29-0.33,0.48-0.5l0.4-0.38c0.11-0.1,0.2-0.19,0.27-0.27c0.07-0.08,0.12-0.17,0.16-0.25c0.04-0.08,0.06-0.17,0.07-0.27
		c0.01-0.1,0.02-0.21,0.02-0.33c0-0.41-0.16-0.61-0.49-0.61c-0.13,0-0.22,0.03-0.3,0.08c-0.07,0.05-0.13,0.12-0.17,0.21
		c-0.04,0.09-0.06,0.19-0.08,0.31c-0.01,0.12-0.02,0.24-0.02,0.37h-0.96v-0.19c0-0.46,0.12-0.81,0.37-1.06
		c0.25-0.24,0.63-0.37,1.16-0.37c0.5,0,0.87,0.12,1.11,0.35c0.24,0.23,0.36,0.56,0.36,0.99c0,0.16-0.01,0.3-0.04,0.44
		c-0.03,0.14-0.07,0.27-0.13,0.39c-0.06,0.13-0.14,0.25-0.24,0.36c-0.1,0.12-0.22,0.24-0.35,0.36l-0.56,0.51
		c-0.15,0.13-0.26,0.26-0.35,0.39c-0.08,0.13-0.14,0.24-0.16,0.33h1.85v0.78H55.65L55.65,121.48z"/>
	<path class="st1" d="M58.98,121.48c0-0.22,0.02-0.42,0.07-0.61c0.04-0.19,0.11-0.37,0.2-0.54c0.09-0.17,0.2-0.34,0.34-0.5
		c0.14-0.16,0.29-0.33,0.48-0.5l0.4-0.38c0.11-0.1,0.2-0.19,0.27-0.27c0.07-0.08,0.12-0.17,0.16-0.25c0.04-0.08,0.06-0.17,0.07-0.27
		c0.01-0.1,0.02-0.21,0.02-0.33c0-0.41-0.16-0.61-0.49-0.61c-0.12,0-0.22,0.03-0.29,0.08c-0.07,0.05-0.13,0.12-0.17,0.21
		c-0.04,0.09-0.06,0.19-0.08,0.31c-0.01,0.12-0.02,0.24-0.02,0.37h-0.96v-0.19c0-0.46,0.12-0.81,0.37-1.06
		c0.25-0.24,0.63-0.37,1.16-0.37c0.5,0,0.87,0.12,1.11,0.35c0.24,0.23,0.36,0.56,0.36,0.99c0,0.16-0.01,0.3-0.04,0.44
		c-0.03,0.14-0.07,0.27-0.13,0.39c-0.06,0.13-0.14,0.25-0.24,0.36c-0.1,0.12-0.22,0.24-0.35,0.36l-0.56,0.51
		c-0.15,0.13-0.26,0.26-0.35,0.39c-0.08,0.13-0.14,0.24-0.16,0.33h1.85v0.78H58.98L58.98,121.48z"/>
</g>
<g class="st5">
	<polygon class="st6" points="100.73,129.19 10.27,129.19 10.27,130.78 100.73,130.78 100.73,129.19 	"/>
	<polygon class="st7" points="100.72,14.13 100.73,129.17 10.34,129.17 10.34,14.04 55.24,48.25 100.72,14.13 	"/>
	<path class="st8" d="M74.8,80.07h-0.34v0.64h0.34c0.2,0,0.34-0.13,0.34-0.32C75.14,80.21,75,80.07,74.8,80.07L74.8,80.07z
		 M75.15,81.66l-0.42-0.74h-0.27v0.74h-0.25v-1.82h0.62c0.32,0,0.57,0.24,0.57,0.54c0,0.27-0.16,0.43-0.39,0.5l0.43,0.77H75.15
		L75.15,81.66z M74.75,79.34c-0.77,0-1.39,0.64-1.39,1.41c0,0.78,0.62,1.41,1.39,1.41c0.77,0,1.4-0.64,1.4-1.41
		C76.14,79.98,75.52,79.34,74.75,79.34L74.75,79.34z M74.75,82.41c-0.91,0-1.66-0.74-1.66-1.66c0-0.91,0.74-1.66,1.66-1.66
		c0.91,0,1.66,0.74,1.66,1.66C76.41,81.67,75.66,82.41,74.75,82.41L74.75,82.41z"/>
	<polygon class="st7" points="44.6,11.06 48.36,13.67 50.02,9.42 53.19,12.71 55.66,8.86 58.12,12.71 61.29,9.42 62.95,13.68 
		66.71,11.06 67.51,15.56 70.3,14.34 70.3,2.62 40.98,2.62 40.98,14.32 43.8,15.56 44.6,11.06 	"/>
	<polygon class="st7" points="66.69,64.42 62.94,61.8 61.27,66.06 58.11,62.76 55.64,66.61 53.18,62.76 50.01,66.06 48.34,61.8 
		44.59,64.41 43.79,59.91 40.97,61.14 40.97,79.24 55.65,67.97 70.32,79.24 70.32,61.15 67.5,59.91 66.69,64.42 	"/>
	<path class="st6" d="M70.32,79.24L55.65,67.97L40.97,79.24v-18.1l2.82-1.23l0.8,4.5l3.75-2.61l1.67,4.26l3.17-3.3l2.46,3.85
		l2.47-3.85l3.17,3.3l1.67-4.26l3.75,2.61l0.8-4.5l2.83,1.24V79.24L70.32,79.24z M40.98,2.62H70.3v11.72l-2.79,1.22l-0.8-4.5
		l-3.75,2.61l-1.66-4.26l-3.17,3.3l-2.46-3.85l-2.47,3.85l-3.17-3.3l-1.67,4.26l-3.75-2.62l-0.8,4.5l-2.82-1.23V2.62L40.98,2.62z
		 M80.67,40.21l3.85-2.46l-3.85-2.47l3.3-3.17l-4.26-1.67l2.61-3.75l-4.5-0.8l1.83-4.19l-4.57,0.09l0.98-4.47l-4.37,0.96V1.22H39.57
		l0,17.05l-4.34-0.95l0.98,4.47l-4.57-0.09l1.83,4.19l-4.5,0.8l2.61,3.75l-4.26,1.66l3.3,3.17l-3.85,2.46l3.85,2.47l-3.3,3.17
		l4.26,1.67l-2.61,3.75l4.5,0.81l-1.83,4.19l4.57-0.09l-0.98,4.46l4.34-0.95l0,24.89l16.08-12.34l16.07,12.35V57.21l4.33,0.95
		l-0.98-4.47l4.57,0.09l-1.83-4.19l4.5-0.8l-2.61-3.75l4.26-1.66L80.67,40.21L80.67,40.21z"/>
	<path class="st9" d="M55.64,13.75c-13.27,0-24.01,10.76-24.01,24.02c0,13.25,10.75,23.99,24.01,23.99
		c13.26,0,24.03-10.74,24.03-23.99C79.67,24.51,68.9,13.75,55.64,13.75L55.64,13.75z"/>
	<polygon class="st8" points="70.12,28.42 67.8,30.04 67.03,28.95 69.35,27.33 71.49,23.31 72.33,24.5 70.8,27.15 73.8,26.59 
		74.64,27.78 70.12,28.42 	"/>
	<polygon class="st8" points="62.73,25.03 66.9,19.56 70.52,22.3 69.79,23.25 67.25,21.33 66.27,22.61 68.44,24.25 67.71,25.2 
		65.54,23.56 64.53,24.89 67.07,26.82 66.34,27.77 62.73,25.03 	"/>
	<polygon class="st8" points="57.89,23.39 59.73,16.77 61.03,17.13 59.51,22.6 62.52,23.43 62.2,24.58 57.89,23.39 	"/>
	<polygon class="st8" points="52.68,23.55 52.06,16.7 53.4,16.58 53.91,22.23 57.03,21.95 57.14,23.15 52.68,23.55 	"/>
	<polygon class="st8" points="47.64,25.57 44.77,19.32 48.9,17.43 49.4,18.52 46.49,19.85 47.17,21.32 49.64,20.19 50.14,21.27 
		47.67,22.4 48.37,23.92 51.27,22.6 51.77,23.68 47.64,25.57 	"/>
	<polygon class="st8" points="46.07,27.05 42.54,26.3 42.75,27.67 44.3,29.04 43.41,30.04 38.24,25.49 39.14,24.49 41.39,26.47 
		40.75,22.67 41.83,21.45 42.37,24.96 47.11,25.88 46.07,27.05 	"/>
	<polygon class="st8" points="75.82,41.57 74.19,38.11 73.36,39.28 73.36,41.57 72.12,41.57 72.12,33.97 73.36,33.97 73.36,37.28 
		75.61,33.97 77.12,33.97 75.01,36.99 77.27,41.57 75.82,41.57 	"/>
	<path class="st8" d="M69.75,35.64c-0.18-0.24-0.46-0.4-0.8-0.4c-0.34,0-0.63,0.16-0.8,0.4c-0.24,0.32-0.3,0.67-0.3,2.13
		c0,1.46,0.06,1.81,0.3,2.13c0.18,0.25,0.46,0.41,0.8,0.41c0.34,0,0.62-0.16,0.8-0.41c0.24-0.32,0.31-0.67,0.31-2.13
		C70.07,36.31,69.99,35.96,69.75,35.64L69.75,35.64z M70.67,40.8c-0.45,0.53-0.99,0.83-1.72,0.83c-0.72,0-1.28-0.3-1.73-0.83
		c-0.64-0.77-0.63-1.72-0.63-3.03c0-1.31-0.02-2.26,0.63-3.03c0.45-0.53,1-0.83,1.73-0.83c0.72,0,1.27,0.3,1.72,0.83
		c0.64,0.77,0.63,1.72,0.63,3.03C71.31,39.08,71.32,40.03,70.67,40.8L70.67,40.8z"/>
	<path class="st8" d="M64.45,35.64c-0.18-0.24-0.46-0.4-0.8-0.4c-0.34,0-0.63,0.16-0.81,0.4c-0.24,0.32-0.3,0.67-0.3,2.13
		c0,1.46,0.06,1.81,0.3,2.13c0.18,0.25,0.46,0.41,0.81,0.41c0.34,0,0.62-0.16,0.8-0.41c0.24-0.32,0.31-0.67,0.31-2.13
		C64.76,36.31,64.69,35.96,64.45,35.64L64.45,35.64z M65.37,40.8c-0.45,0.53-0.99,0.83-1.72,0.83c-0.72,0-1.28-0.3-1.73-0.83
		c-0.64-0.77-0.63-1.72-0.63-3.03c0-1.31-0.02-2.26,0.63-3.03c0.45-0.53,1-0.83,1.73-0.83c0.72,0,1.27,0.3,1.72,0.83
		c0.64,0.77,0.63,1.72,0.63,3.03C66.01,39.08,66.01,40.03,65.37,40.8L65.37,40.8z"/>
	<path class="st8" d="M58.63,38.38h-1.3v1.87h1.3c0.56,0,0.83-0.43,0.83-0.94C59.46,38.79,59.19,38.38,58.63,38.38L58.63,38.38z
		 M58.55,35.29h-1.22v1.75h1.22c0.53,0,0.82-0.35,0.82-0.87C59.37,35.65,59.08,35.29,58.55,35.29L58.55,35.29z M58.75,41.57h-2.66
		v-7.59h2.56c1.24,0,1.97,0.83,1.97,2.13c0,0.84-0.46,1.39-0.79,1.57c0.38,0.21,0.88,0.69,0.88,1.71
		C60.7,40.8,59.89,41.57,58.75,41.57L58.75,41.57z"/>
	<polygon class="st8" points="49.52,41.57 49.52,33.97 53.71,33.97 53.71,35.29 50.76,35.29 50.76,37.08 53.27,37.08 53.27,38.4 
		50.76,38.4 50.76,40.24 53.71,40.24 53.71,41.57 49.52,41.57 	"/>
	<path class="st8" d="M46.25,41.63c-1.31,0-2.34-1.06-2.34-2.67v-4.99h1.24v4.94c0,0.87,0.43,1.4,1.1,1.4c0.67,0,1.11-0.52,1.11-1.4
		v-4.94h1.23v4.99C48.59,40.57,47.55,41.63,46.25,41.63L46.25,41.63z"/>
	<polygon class="st8" points="39.42,41.57 39.42,33.97 40.67,33.97 40.67,40.24 43.55,40.24 43.55,41.57 39.42,41.57 	"/>
	<path class="st8" d="M36.54,38.38h-1.3v1.87h1.3c0.56,0,0.83-0.43,0.83-0.94C37.37,38.79,37.1,38.38,36.54,38.38L36.54,38.38z
		 M36.46,35.29h-1.22v1.75h1.22c0.53,0,0.82-0.35,0.82-0.87C37.28,35.65,36.98,35.29,36.46,35.29L36.46,35.29z M36.66,41.57H34
		v-7.59h2.56c1.24,0,1.97,0.83,1.97,2.13c0,0.84-0.46,1.39-0.79,1.57c0.38,0.21,0.88,0.69,0.88,1.71
		C38.61,40.8,37.8,41.57,36.66,41.57L36.66,41.57z"/>
	<path class="st8" d="M41.54,46.75c0.04-0.17,0.02-0.36-0.1-0.53c-0.12-0.18-0.29-0.27-0.46-0.29c-0.22-0.03-0.4,0.05-1.03,0.5
		c-0.63,0.45-0.77,0.59-0.82,0.81c-0.05,0.17-0.01,0.36,0.1,0.54c0.12,0.17,0.28,0.27,0.45,0.29c0.22,0.03,0.4-0.05,1.04-0.49
		C41.35,47.12,41.48,46.97,41.54,46.75L41.54,46.75z M39.62,48.8c-0.39-0.07-0.71-0.26-0.96-0.63c-0.25-0.37-0.32-0.75-0.24-1.14
		c0.11-0.57,0.53-0.85,1.1-1.25c0.57-0.4,0.98-0.7,1.53-0.6c0.39,0.07,0.71,0.26,0.96,0.63c0.25,0.37,0.31,0.74,0.24,1.14
		c-0.11,0.56-0.52,0.85-1.09,1.25C40.58,48.6,40.17,48.9,39.62,48.8L39.62,48.8z"/>
	<polygon class="st8" points="43.04,48.52 42.33,49.22 43.39,50.35 42.88,50.84 41.82,49.71 40.64,50.86 40.12,50.29 43.02,47.47 
		44.79,49.36 44.28,49.85 43.04,48.52 	"/>
	<polygon class="st8" points="45.42,50.78 44.84,51.6 46.08,52.52 45.67,53.1 44.43,52.17 43.47,53.51 42.85,53.05 45.22,49.75 
		47.29,51.3 46.88,51.87 45.42,50.78 	"/>
	<polygon class="st8" points="45.94,55.13 47.78,51.5 48.45,51.86 46.61,55.49 45.94,55.13 	"/>
	<path class="st8" d="M48.78,56.43c-0.4-0.15-0.68-0.43-0.84-0.79c-0.23-0.53-0.05-1,0.19-1.67c0.24-0.66,0.4-1.15,0.91-1.4
		c0.35-0.17,0.74-0.2,1.14-0.05c0.68,0.26,1.07,0.86,0.91,1.72l-0.73-0.27c0.04-0.34-0.06-0.64-0.42-0.77
		c-0.2-0.07-0.38-0.06-0.53,0.03c-0.2,0.11-0.3,0.28-0.57,1.02c-0.26,0.74-0.29,0.94-0.21,1.15c0.06,0.16,0.19,0.3,0.39,0.37
		c0.36,0.13,0.63-0.03,0.81-0.32l0.73,0.27C50.15,56.48,49.46,56.69,48.78,56.43L48.78,56.43z"/>
	<polygon class="st8" points="51.03,57.13 51.85,53.12 52.6,53.28 51.78,57.28 51.03,57.13 	"/>
	<path class="st8" d="M54.2,54.71l-0.61,1.44l0.97,0.08L54.2,54.71L54.2,54.71z M54.88,57.66l-0.17-0.74l-1.38-0.11l-0.29,0.7
		l-0.79-0.07l1.73-3.96l0.59,0.05l1.1,4.19L54.88,57.66L54.88,57.66z"/>
	<polygon class="st8" points="56.17,57.66 55.94,53.58 56.7,53.53 56.89,56.9 58.65,56.8 58.69,57.51 56.17,57.66 	"/>
	<path class="st8" d="M62.6,55.87c-0.18,0.43-0.49,0.67-0.88,0.82c-0.4,0.15-0.78,0.12-1.14-0.06c-0.51-0.25-0.67-0.74-0.9-1.4
		c-0.24-0.66-0.42-1.14-0.18-1.67c0.16-0.36,0.43-0.63,0.84-0.79c0.85-0.31,1.49,0.11,1.82,0.72l-0.72,0.27
		c-0.21-0.33-0.49-0.45-0.86-0.32c-0.19,0.07-0.33,0.21-0.38,0.37c-0.08,0.21-0.05,0.41,0.21,1.15c0.26,0.74,0.36,0.91,0.56,1.02
		c0.15,0.09,0.33,0.1,0.53,0.03c0.22-0.08,0.36-0.23,0.43-0.4c0.07-0.18,0.05-0.37-0.02-0.57l-0.05-0.15l-0.68,0.25l-0.22-0.63
		l1.38-0.51l0.2,0.56C62.73,55.13,62.76,55.5,62.6,55.87L62.6,55.87z"/>
	<path class="st8" d="M65.3,55.17c-0.7,0.4-1.52,0.21-1.94-0.54l-1.28-2.35l0.66-0.38l1.27,2.32c0.23,0.41,0.59,0.53,0.95,0.32
		c0.36-0.2,0.46-0.58,0.23-0.99l-1.27-2.32l0.66-0.38l1.28,2.35C66.28,53.96,66,54.77,65.3,55.17L65.3,55.17z"/>
	<polygon class="st8" points="67.57,53.7 65.04,50.53 65.63,50.04 68.16,53.21 67.57,53.7 	"/>
	<path class="st8" d="M68.14,49.03c-0.21-0.02-0.39,0.04-0.58,0.23l-0.41,0.41l1.84,1.9l0.41-0.41c0.19-0.19,0.25-0.38,0.23-0.59
		c-0.03-0.23-0.21-0.46-0.64-0.9C68.56,49.23,68.37,49.06,68.14,49.03L68.14,49.03z M70.4,50.6c0,0.38-0.17,0.72-0.46,1.02l-1,1.01
		l-2.82-2.91l1-1.01c0.29-0.29,0.63-0.47,1-0.46c0.63,0.01,0.99,0.44,1.41,0.88C69.95,49.56,70.4,49.96,70.4,50.6L70.4,50.6z"/>
	<polygon class="st8" points="71.5,49.75 68.16,47.49 69.58,45.3 70.17,45.7 69.17,47.23 69.95,47.77 70.8,46.46 71.38,46.85 
		70.53,48.16 71.34,48.71 72.34,47.18 72.92,47.57 71.5,49.75 	"/>
	<path class="st6" d="M55.58,26.19c4.74,0,8.79,2.86,10.57,6.94h0.71c-1.81-4.45-6.17-7.6-11.28-7.6c-5.11,0-9.46,3.15-11.28,7.6
		h0.71C46.79,29.05,50.84,26.19,55.58,26.19L55.58,26.19z"/>
	<path class="st6" d="M55.58,49.25c-4.7,0-8.74-2.82-10.53-6.85h-0.71c1.83,4.41,6.17,7.51,11.24,7.51s9.41-3.1,11.24-7.51h-0.71
		C64.32,46.43,60.28,49.25,55.58,49.25L55.58,49.25z"/>
	<path class="st8" d="M27.72,93.07h-1.4v1.49h1.4c0.57,0,0.76-0.39,0.76-0.75C28.48,93.45,28.29,93.07,27.72,93.07L27.72,93.07z
		 M27.61,89.83h-1.3v1.38h1.3c0.57,0,0.75-0.36,0.75-0.69C28.36,90.19,28.18,89.83,27.61,89.83L27.61,89.83z M27.92,96.43h-3.68
		v-8.46h3.51c1.76,0,2.7,0.99,2.7,2.45c0,0.96-0.67,1.5-0.93,1.68c0.34,0.21,1.05,0.65,1.05,1.84
		C30.56,95.55,29.43,96.43,27.92,96.43L27.92,96.43z"/>
	<path class="st8" d="M35.3,92.06c-0.12-0.26-0.38-0.5-0.84-0.5c-0.46,0-0.73,0.24-0.84,0.5c-0.08,0.18-0.11,0.34-0.11,0.5h1.9
		C35.4,92.41,35.38,92.24,35.3,92.06L35.3,92.06z M33.5,93.86c0,0.52,0.4,1,1.13,1c0.68,0,0.97-0.19,1.32-0.54l1.16,1.17
		c-0.65,0.65-1.3,1.01-2.48,1.01c-1.41,0-3.04-0.51-3.04-3.27c0-2.09,1.19-3.27,2.86-3.27c1.85,0,2.88,1.33,2.88,3.09v0.81H33.5
		L33.5,93.86z"/>
	<path class="st8" d="M40.68,96.5c-0.96,0-1.9-0.05-2.78-0.93l1.26-1.26c0.53,0.54,1.22,0.54,1.56,0.54c0.29,0,0.83-0.08,0.83-0.42
		c0-0.18-0.08-0.37-0.46-0.4l-0.99-0.09c-1.1-0.11-1.85-0.61-1.85-1.85c0-1.41,1.27-2.12,2.54-2.12c1.05,0,1.89,0.15,2.52,0.78
		l-1.2,1.2c-0.32-0.32-0.86-0.38-1.35-0.38c-0.48,0-0.63,0.23-0.63,0.37c0,0.19,0.1,0.32,0.42,0.36l0.99,0.09
		c1.34,0.13,1.93,0.93,1.93,1.95C43.45,95.84,42.16,96.5,40.68,96.5L40.68,96.5z"/>
	<path class="st8" d="M46.51,96.43c-1.41,0-1.98-1.01-1.98-1.89v-2.76h-0.58v-1.5h0.58v-1.83h1.95v1.83h1.01v1.5h-1.01v2.62
		c0,0.25,0.13,0.39,0.39,0.39h0.62v1.64H46.51L46.51,96.43z"/>
	<path class="st8" d="M54.71,89.83h-1.18v1.71h1.18c0.57,0,0.9-0.42,0.9-0.86C55.61,90.24,55.28,89.83,54.71,89.83L54.71,89.83z
		 M55.73,96.43l-1.5-3.15h-0.7v3.15h-2.08v-8.46h3.35c1.88,0,2.89,1.33,2.89,2.72c0,1.15-0.71,1.88-1.38,2.21l1.83,3.53H55.73
		L55.73,96.43z"/>
	<path class="st8" d="M62.15,92.06c-0.12-0.26-0.38-0.5-0.84-0.5c-0.46,0-0.73,0.24-0.84,0.5c-0.08,0.18-0.11,0.34-0.11,0.5h1.9
		C62.26,92.41,62.23,92.24,62.15,92.06L62.15,92.06z M60.35,93.86c0,0.52,0.4,1,1.13,1c0.68,0,0.97-0.19,1.32-0.54l1.16,1.17
		c-0.65,0.65-1.3,1.01-2.48,1.01c-1.41,0-3.04-0.51-3.04-3.27c0-2.09,1.19-3.27,2.86-3.27c1.85,0,2.88,1.33,2.88,3.09v0.81H60.35
		L60.35,93.86z"/>
	<path class="st8" d="M67.53,96.5c-0.96,0-1.9-0.05-2.78-0.93l1.26-1.26c0.53,0.54,1.22,0.54,1.56,0.54c0.29,0,0.83-0.08,0.83-0.42
		c0-0.18-0.08-0.37-0.46-0.4l-0.99-0.09c-1.1-0.11-1.85-0.61-1.85-1.85c0-1.41,1.27-2.12,2.54-2.12c1.05,0,1.89,0.15,2.52,0.78
		l-1.2,1.2c-0.32-0.32-0.86-0.38-1.36-0.38c-0.48,0-0.63,0.23-0.63,0.37c0,0.19,0.1,0.32,0.42,0.36l0.99,0.09
		c1.34,0.13,1.93,0.93,1.93,1.95C70.3,95.84,69.02,96.5,67.53,96.5L67.53,96.5z"/>
	<path class="st8" d="M74.41,93.86h-0.93c-0.45,0-0.68,0.2-0.68,0.52c0,0.3,0.23,0.52,0.7,0.52c0.32,0,0.5-0.05,0.7-0.23
		c0.15-0.14,0.2-0.32,0.2-0.65V93.86L74.41,93.86z M74.46,96.43V95.9c-0.39,0.39-0.75,0.58-1.43,0.58c-0.64,0-1.18-0.21-1.53-0.57
		c-0.37-0.37-0.56-0.9-0.56-1.5c0-0.96,0.65-1.85,2.21-1.85h1.26V92.4c0-0.58-0.29-0.8-0.96-0.8c-0.44,0-0.7,0.14-1.01,0.45
		l-1.21-1.21c0.65-0.65,1.24-0.88,2.32-0.88c1.83,0,2.82,0.76,2.82,2.32v4.15H74.46L74.46,96.43z"/>
	<path class="st8" d="M79.65,96.43c-1.41,0-1.98-1.01-1.98-1.89v-6.57h1.95v6.43c0,0.25,0.13,0.39,0.39,0.39h0.68v1.64H79.65
		L79.65,96.43z"/>
	<path class="st8" d="M85.08,92.06c-0.12-0.26-0.38-0.5-0.84-0.5c-0.46,0-0.73,0.24-0.84,0.5c-0.08,0.18-0.11,0.34-0.11,0.5h1.9
		C85.19,92.41,85.16,92.24,85.08,92.06L85.08,92.06z M83.28,93.86c0,0.52,0.4,1,1.13,1c0.68,0,0.97-0.19,1.32-0.54l1.17,1.17
		c-0.65,0.65-1.3,1.01-2.48,1.01c-1.41,0-3.04-0.51-3.04-3.27c0-2.09,1.19-3.27,2.86-3.27c1.85,0,2.88,1.33,2.88,3.09v0.81H83.28
		L83.28,93.86z"/>
	<polygon class="st8" points="25.52,108.31 23.98,108.31 21.18,99.84 23.34,99.84 24.76,104.57 26.16,99.84 28.33,99.84 
		25.52,108.31 	"/>
	<path class="st8" d="M31.64,105.74h-0.93c-0.45,0-0.68,0.2-0.68,0.52c0,0.3,0.23,0.52,0.7,0.52c0.32,0,0.5-0.05,0.7-0.23
		c0.15-0.14,0.2-0.32,0.2-0.65V105.74L31.64,105.74z M31.69,108.31v-0.52c-0.39,0.39-0.75,0.58-1.43,0.58
		c-0.64,0-1.18-0.21-1.53-0.57c-0.37-0.37-0.56-0.9-0.56-1.5c0-0.96,0.65-1.85,2.21-1.85h1.26v-0.17c0-0.58-0.29-0.8-0.96-0.8
		c-0.44,0-0.7,0.14-1.01,0.45l-1.21-1.21c0.65-0.65,1.24-0.88,2.32-0.88c1.83,0,2.82,0.76,2.82,2.32v4.15H31.69L31.69,108.31z"/>
	<path class="st8" d="M36.88,108.31c-1.41,0-1.98-1.01-1.98-1.89v-6.57h1.95v6.43c0,0.25,0.13,0.39,0.39,0.39h0.68v1.64H36.88
		L36.88,108.31z"/>
	<path class="st8" d="M42.51,108.31v-0.52c-0.39,0.39-0.97,0.59-1.49,0.59c-0.61,0-1.09-0.2-1.44-0.55
		c-0.55-0.55-0.64-1.15-0.64-1.83v-4.09h1.95v3.83c0,0.74,0.52,0.88,0.78,0.88c0.26,0,0.78-0.14,0.78-0.88v-3.83h1.95v6.39H42.51
		L42.51,108.31z"/>
	<path class="st8" d="M49.31,103.95c-0.12-0.26-0.38-0.5-0.84-0.5s-0.73,0.24-0.84,0.5c-0.08,0.18-0.11,0.34-0.11,0.5h1.9
		C49.42,104.29,49.39,104.12,49.31,103.95L49.31,103.95z M47.51,105.74c0,0.52,0.4,1,1.13,1c0.68,0,0.97-0.19,1.32-0.53l1.16,1.16
		c-0.65,0.65-1.3,1.01-2.48,1.01c-1.41,0-3.04-0.51-3.04-3.27c0-2.09,1.19-3.27,2.86-3.27c1.85,0,2.88,1.33,2.88,3.09v0.81H47.51
		L47.51,105.74z"/>
	<path class="st8" d="M58.36,103.05l-0.76,2.26h1.47L58.36,103.05L58.36,103.05z M60.02,108.31l-0.39-1.26h-2.6l-0.42,1.26h-2.17
		l3.08-8.46h1.6l3.08,8.46H60.02L60.02,108.31z"/>
	<polygon class="st8" points="69.47,108.31 67.92,108.31 66.76,104.8 65.61,108.31 64.05,108.31 62.13,101.91 64.18,101.91 
		64.98,105.23 66.09,101.91 67.44,101.91 68.55,105.23 69.34,101.91 71.4,101.91 69.47,108.31 	"/>
	<path class="st8" d="M75.13,105.74H74.2c-0.45,0-0.68,0.2-0.68,0.52c0,0.3,0.23,0.52,0.7,0.52c0.32,0,0.5-0.05,0.7-0.23
		c0.15-0.14,0.2-0.32,0.2-0.65V105.74L75.13,105.74z M75.18,108.31v-0.52c-0.39,0.39-0.75,0.58-1.43,0.58
		c-0.64,0-1.18-0.21-1.53-0.57c-0.37-0.37-0.56-0.9-0.56-1.5c0-0.96,0.65-1.85,2.21-1.85h1.26v-0.17c0-0.58-0.29-0.8-0.96-0.8
		c-0.44,0-0.7,0.14-1.01,0.45l-1.21-1.21c0.65-0.65,1.24-0.88,2.32-0.88c1.83,0,2.82,0.76,2.82,2.32v4.15H75.18L75.18,108.31z"/>
	<path class="st8" d="M81.88,103.93c-0.19-0.19-0.37-0.33-0.7-0.33c-0.26,0-0.79,0.16-0.79,0.88v3.83h-1.95v-6.39h1.9v0.52
		c0.29-0.28,0.84-0.59,1.51-0.59c0.63,0,1.06,0.15,1.5,0.59L81.88,103.93L81.88,103.93z"/>
	<path class="st8" d="M86.26,103.6c-0.73,0-0.81,0.58-0.81,1.51c0,0.93,0.08,1.51,0.81,1.51c0.73,0,0.81-0.58,0.81-1.51
		C87.07,104.18,86.99,103.6,86.26,103.6L86.26,103.6z M87.13,108.31v-0.52c-0.39,0.39-0.81,0.59-1.47,0.59
		c-0.62,0-1.18-0.2-1.55-0.58c-0.59-0.62-0.61-1.58-0.61-2.69c0-1.1,0.01-2.07,0.61-2.69c0.37-0.38,0.92-0.58,1.53-0.58
		c0.63,0,1.07,0.18,1.43,0.54v-2.53h1.95v8.46H87.13L87.13,108.31z"/>
	<polygon class="st6" points="43.01,118.5 17.62,118.5 17.62,119.82 43.01,119.82 43.01,118.5 	"/>
	<polygon class="st6" points="68.38,118.5 68.38,119.82 93.51,119.82 93.51,118.5 68.38,118.5 	"/>
	<path class="st8" d="M48.74,121.69c0-0.23,0.02-0.44,0.07-0.63c0.05-0.2,0.12-0.38,0.21-0.56c0.09-0.18,0.21-0.35,0.35-0.52
		c0.14-0.17,0.31-0.34,0.49-0.52l0.42-0.39c0.12-0.1,0.21-0.19,0.28-0.28c0.07-0.09,0.12-0.17,0.16-0.26
		c0.04-0.09,0.06-0.18,0.08-0.28c0.01-0.1,0.02-0.22,0.02-0.35c0-0.42-0.17-0.63-0.5-0.63c-0.13,0-0.23,0.03-0.31,0.08
		c-0.07,0.05-0.13,0.13-0.17,0.22c-0.04,0.09-0.07,0.2-0.08,0.32c-0.01,0.12-0.02,0.25-0.02,0.38h-0.99v-0.19
		c0-0.48,0.13-0.84,0.38-1.1c0.25-0.25,0.66-0.38,1.2-0.38c0.52,0,0.9,0.12,1.15,0.36c0.25,0.24,0.37,0.58,0.37,1.03
		c0,0.16-0.01,0.32-0.04,0.46c-0.03,0.14-0.07,0.28-0.14,0.41c-0.06,0.13-0.14,0.26-0.25,0.38c-0.1,0.12-0.22,0.25-0.37,0.38
		l-0.58,0.53c-0.15,0.14-0.27,0.27-0.36,0.41c-0.09,0.13-0.14,0.25-0.17,0.34h1.92v0.81H48.74L48.74,121.69z"/>
	<path class="st8" d="M53.26,120.33c0.02,0.2,0.05,0.37,0.09,0.48c0.04,0.12,0.1,0.2,0.17,0.24c0.07,0.04,0.16,0.06,0.27,0.06
		c0.12,0,0.21-0.03,0.28-0.08c0.07-0.06,0.13-0.15,0.17-0.28c0.04-0.13,0.07-0.31,0.09-0.53c0.02-0.22,0.03-0.49,0.03-0.82v-0.56
		c0-0.32-0.01-0.58-0.03-0.79c-0.02-0.2-0.05-0.37-0.09-0.48c-0.04-0.12-0.1-0.2-0.17-0.24c-0.07-0.04-0.16-0.06-0.27-0.06
		c-0.12,0-0.21,0.03-0.28,0.08c-0.07,0.05-0.13,0.15-0.17,0.28c-0.04,0.13-0.07,0.31-0.09,0.53c-0.02,0.22-0.03,0.49-0.03,0.82v0.56
		C53.24,119.86,53.25,120.12,53.26,120.33L53.26,120.33z M52.24,118.29c0.02-0.33,0.09-0.62,0.19-0.87
		c0.11-0.25,0.27-0.45,0.48-0.61c0.21-0.15,0.51-0.23,0.89-0.23c0.31,0,0.57,0.04,0.77,0.13c0.2,0.09,0.37,0.23,0.49,0.43
		c0.12,0.2,0.21,0.45,0.26,0.77c0.05,0.32,0.08,0.7,0.08,1.15c0,0.36-0.01,0.7-0.04,1.02c-0.02,0.33-0.09,0.62-0.19,0.87
		c-0.11,0.25-0.27,0.45-0.48,0.59c-0.21,0.14-0.51,0.22-0.89,0.22c-0.31,0-0.56-0.04-0.77-0.12c-0.21-0.08-0.37-0.22-0.49-0.42
		c-0.12-0.2-0.21-0.45-0.26-0.77c-0.05-0.32-0.08-0.7-0.08-1.15C52.2,118.96,52.21,118.62,52.24,118.29L52.24,118.29z"/>
	<path class="st8" d="M55.66,121.69c0-0.23,0.02-0.44,0.07-0.63c0.05-0.2,0.12-0.38,0.21-0.56c0.09-0.18,0.21-0.35,0.35-0.52
		c0.14-0.17,0.31-0.34,0.49-0.52l0.42-0.39c0.12-0.1,0.21-0.19,0.28-0.28c0.07-0.09,0.12-0.17,0.16-0.26
		c0.04-0.09,0.06-0.18,0.08-0.28c0.01-0.1,0.02-0.22,0.02-0.35c0-0.42-0.17-0.63-0.5-0.63c-0.13,0-0.23,0.03-0.31,0.08
		c-0.07,0.05-0.13,0.13-0.17,0.22c-0.04,0.09-0.07,0.2-0.08,0.32c-0.01,0.12-0.02,0.25-0.02,0.38h-0.99v-0.19
		c0-0.48,0.13-0.84,0.38-1.1c0.25-0.25,0.66-0.38,1.2-0.38c0.52,0,0.9,0.12,1.15,0.36c0.25,0.24,0.37,0.58,0.37,1.03
		c0,0.16-0.01,0.32-0.04,0.46c-0.03,0.14-0.07,0.28-0.14,0.41c-0.06,0.13-0.14,0.26-0.25,0.38c-0.1,0.12-0.22,0.25-0.37,0.38
		l-0.58,0.53c-0.15,0.14-0.27,0.27-0.36,0.41c-0.09,0.13-0.14,0.25-0.17,0.34h1.92v0.81H55.66L55.66,121.69z"/>
	<path class="st8" d="M59.12,121.69c0-0.23,0.02-0.44,0.07-0.63c0.05-0.2,0.12-0.38,0.21-0.56c0.09-0.18,0.21-0.35,0.35-0.52
		c0.14-0.17,0.31-0.34,0.49-0.52l0.42-0.39c0.12-0.1,0.21-0.19,0.28-0.28c0.07-0.09,0.12-0.17,0.16-0.26
		c0.04-0.09,0.06-0.18,0.08-0.28c0.01-0.1,0.02-0.22,0.02-0.35c0-0.42-0.17-0.63-0.5-0.63c-0.13,0-0.23,0.03-0.31,0.08
		c-0.07,0.05-0.13,0.13-0.17,0.22c-0.04,0.09-0.07,0.2-0.08,0.32c-0.01,0.12-0.02,0.25-0.02,0.38h-0.99v-0.19
		c0-0.48,0.13-0.84,0.38-1.1c0.25-0.25,0.66-0.38,1.2-0.38c0.52,0,0.9,0.12,1.15,0.36c0.25,0.24,0.37,0.58,0.37,1.03
		c0,0.16-0.01,0.32-0.04,0.46c-0.03,0.14-0.07,0.28-0.14,0.41c-0.06,0.13-0.14,0.26-0.24,0.38c-0.1,0.12-0.22,0.25-0.37,0.38
		l-0.58,0.53c-0.15,0.14-0.27,0.27-0.36,0.41c-0.09,0.13-0.14,0.25-0.17,0.34h1.92v0.81H59.12L59.12,121.69z"/>
</g>
</svg>
